<mxfile host="app.diagrams.net" modified="2021-03-03T12:52:17.540Z" agent="5.0 (Macintosh; Intel Mac OS X 10_13_6) AppleWebKit/537.36 (KHTML, like Gecko) Chrome/88.0.4324.192 Safari/537.36" etag="zOHtH3eBIh6ApkE0sYMB" version="14.4.3" type="github">
  <diagram id="gs8es_048TPa-fxmdob4" name="Page-1">
    <mxGraphModel dx="1331" dy="754" grid="0" gridSize="10" guides="1" tooltips="1" connect="1" arrows="1" fold="1" page="1" pageScale="1" pageWidth="4681" pageHeight="3300" math="0" shadow="0">
      <root>
        <mxCell id="0" />
        <mxCell id="1" parent="0" />
        <mxCell id="P6FP3i3TC3KOu5trFAKK-1" value="&lt;ul style=&quot;font-size: 16px;&quot;&gt;&lt;li style=&quot;font-size: 16px;&quot;&gt;合同&lt;/li&gt;&lt;li style=&quot;font-size: 16px;&quot;&gt;实名&lt;/li&gt;&lt;li style=&quot;font-size: 16px;&quot;&gt;授信&lt;/li&gt;&lt;li style=&quot;font-size: 16px;&quot;&gt;额度&lt;/li&gt;&lt;li style=&quot;font-size: 16px;&quot;&gt;借据&lt;/li&gt;&lt;li style=&quot;font-size: 16px;&quot;&gt;计划&lt;/li&gt;&lt;li style=&quot;font-size: 16px;&quot;&gt;还款&lt;/li&gt;&lt;/ul&gt;" style="text;html=1;align=left;verticalAlign=middle;resizable=0;points=[];autosize=1;fontSize=16;fontColor=#666666;" vertex="1" parent="1">
          <mxGeometry x="1792" y="2058.5" width="82" height="169" as="geometry" />
        </mxCell>
        <mxCell id="P6FP3i3TC3KOu5trFAKK-2" value="" style="rounded=1;arcSize=10;dashed=1;fillColor=none;gradientColor=none;strokeWidth=2;align=center;verticalAlign=middle;strokeColor=#999999;" vertex="1" parent="1">
          <mxGeometry x="2101" y="2023" width="211" height="234" as="geometry" />
        </mxCell>
        <mxCell id="P6FP3i3TC3KOu5trFAKK-3" value="打包成「人维度」的JSON&lt;br style=&quot;font-size: 16px;&quot;&gt;1、基础+授信信息&lt;br style=&quot;font-size: 16px;&quot;&gt;2、借款+计划+还款信息" style="shape=note;whiteSpace=wrap;html=1;backgroundOutline=1;darkOpacity=0.05;rounded=1;dashed=1;strokeWidth=1;fontSize=16;align=left;fillColor=none;fontColor=#FF8000;spacingLeft=10;strokeColor=#CCCCCC;" vertex="1" parent="1">
          <mxGeometry x="2094.5" y="2269" width="224" height="64" as="geometry" />
        </mxCell>
        <mxCell id="P6FP3i3TC3KOu5trFAKK-4" value="" style="rounded=1;arcSize=10;dashed=1;fillColor=none;gradientColor=none;strokeWidth=2;align=center;verticalAlign=middle;strokeColor=#999999;" vertex="1" parent="1">
          <mxGeometry x="2680" y="2021" width="119" height="287" as="geometry" />
        </mxCell>
        <mxCell id="P6FP3i3TC3KOu5trFAKK-5" value="" style="edgeStyle=none;rounded=0;orthogonalLoop=1;jettySize=auto;html=1;endArrow=classic;endFill=1;fontSize=20;verticalAlign=middle;fontColor=#666666;strokeColor=#FF8000;strokeWidth=4;" edge="1" parent="1" source="P6FP3i3TC3KOu5trFAKK-6" target="P6FP3i3TC3KOu5trFAKK-8">
          <mxGeometry relative="1" as="geometry" />
        </mxCell>
        <mxCell id="P6FP3i3TC3KOu5trFAKK-6" value="业务&lt;br&gt;数据" style="shape=datastore;whiteSpace=wrap;html=1;rounded=1;strokeWidth=1;fillColor=none;fontSize=18;align=center;verticalAlign=middle;fontColor=#666666;strokeColor=#999999;" vertex="1" parent="1">
          <mxGeometry x="1924" y="2095" width="59" height="93" as="geometry" />
        </mxCell>
        <mxCell id="P6FP3i3TC3KOu5trFAKK-7" value="" style="rounded=0;orthogonalLoop=1;jettySize=auto;html=1;endArrow=classic;endFill=1;fontSize=20;fontColor=#666666;entryX=0;entryY=1;entryDx=0;entryDy=0;exitX=1;exitY=0.5;exitDx=0;exitDy=0;strokeColor=#FF8000;strokeWidth=4;elbow=vertical;" edge="1" parent="1" source="P6FP3i3TC3KOu5trFAKK-8" target="P6FP3i3TC3KOu5trFAKK-13">
          <mxGeometry relative="1" as="geometry" />
        </mxCell>
        <mxCell id="P6FP3i3TC3KOu5trFAKK-8" value="ods表" style="shape=datastore;whiteSpace=wrap;html=1;rounded=1;strokeWidth=1;fillColor=none;fontSize=18;align=center;verticalAlign=middle;fontColor=#666666;strokeColor=#999999;" vertex="1" parent="1">
          <mxGeometry x="2012" y="2095" width="70" height="92" as="geometry" />
        </mxCell>
        <mxCell id="P6FP3i3TC3KOu5trFAKK-9" value="" style="edgeStyle=none;rounded=0;orthogonalLoop=1;jettySize=auto;html=1;endArrow=classic;endFill=1;fontSize=20;verticalAlign=middle;fontColor=#666666;strokeColor=#FF8000;strokeWidth=4;" edge="1" parent="1" source="P6FP3i3TC3KOu5trFAKK-10" target="P6FP3i3TC3KOu5trFAKK-6">
          <mxGeometry relative="1" as="geometry" />
        </mxCell>
        <mxCell id="P6FP3i3TC3KOu5trFAKK-10" value="" style="html=1;shape=mxgraph.flowchart.annotation_2;align=left;labelPosition=right;rounded=1;strokeWidth=4;fillColor=none;fontSize=20;direction=west;verticalAlign=middle;fontColor=#666666;strokeColor=#FF8000;" vertex="1" parent="1">
          <mxGeometry x="1878" y="2091.5" width="26" height="100" as="geometry" />
        </mxCell>
        <mxCell id="P6FP3i3TC3KOu5trFAKK-11" value="" style="edgeStyle=elbowEdgeStyle;rounded=0;orthogonalLoop=1;jettySize=auto;html=1;endArrow=none;endFill=0;strokeColor=#FF8000;strokeWidth=2;fontSize=16;fontColor=#FF8000;elbow=vertical;dashed=1;exitX=0.571;exitY=1.016;exitDx=0;exitDy=0;exitPerimeter=0;entryX=0;entryY=0.5;entryDx=0;entryDy=0;entryPerimeter=0;" edge="1" parent="1" source="P6FP3i3TC3KOu5trFAKK-1" target="P6FP3i3TC3KOu5trFAKK-3">
          <mxGeometry relative="1" as="geometry">
            <mxPoint x="2096" y="2308" as="targetPoint" />
            <Array as="points">
              <mxPoint x="1968" y="2301" />
            </Array>
          </mxGeometry>
        </mxCell>
        <mxCell id="P6FP3i3TC3KOu5trFAKK-12" value="" style="edgeStyle=orthogonalEdgeStyle;rounded=0;orthogonalLoop=1;jettySize=auto;html=1;endArrow=classic;endFill=1;strokeColor=#999999;fontSize=20;fontColor=#666666;entryX=0.5;entryY=0;entryDx=0;entryDy=0;" edge="1" parent="1" source="P6FP3i3TC3KOu5trFAKK-13" target="P6FP3i3TC3KOu5trFAKK-15">
          <mxGeometry relative="1" as="geometry" />
        </mxCell>
        <mxCell id="P6FP3i3TC3KOu5trFAKK-13" value="查询关联" style="shape=ext;rounded=1;html=1;whiteSpace=wrap;strokeColor=#999999;strokeWidth=1;fillColor=none;fontSize=18;fontColor=#666666;align=center;" vertex="1" parent="1">
          <mxGeometry x="2110.5" y="2081" width="101" height="35" as="geometry" />
        </mxCell>
        <mxCell id="P6FP3i3TC3KOu5trFAKK-14" value="" style="edgeStyle=orthogonalEdgeStyle;rounded=0;orthogonalLoop=1;jettySize=auto;html=1;endArrow=classic;endFill=1;strokeColor=#999999;fontSize=20;fontColor=#666666;" edge="1" parent="1" source="P6FP3i3TC3KOu5trFAKK-15" target="P6FP3i3TC3KOu5trFAKK-17">
          <mxGeometry relative="1" as="geometry" />
        </mxCell>
        <mxCell id="P6FP3i3TC3KOu5trFAKK-15" value="聚合" style="shape=ext;rounded=1;html=1;whiteSpace=wrap;strokeWidth=1;fontSize=20;align=center;fillColor=#FF8000;fontColor=#FFFFFF;strokeColor=none;" vertex="1" parent="1">
          <mxGeometry x="2121" y="2139.5" width="80" height="35" as="geometry" />
        </mxCell>
        <mxCell id="P6FP3i3TC3KOu5trFAKK-16" value="" style="rounded=0;orthogonalLoop=1;jettySize=auto;html=1;endArrow=classic;endFill=1;fontSize=20;fontColor=#666666;entryX=0.15;entryY=0.95;entryDx=0;entryDy=0;exitX=1;exitY=0.5;exitDx=0;exitDy=0;strokeColor=#FF8000;strokeWidth=4;entryPerimeter=0;" edge="1" parent="1" source="P6FP3i3TC3KOu5trFAKK-17" target="P6FP3i3TC3KOu5trFAKK-21">
          <mxGeometry relative="1" as="geometry">
            <mxPoint x="2281" y="2268.5" as="targetPoint" />
          </mxGeometry>
        </mxCell>
        <mxCell id="P6FP3i3TC3KOu5trFAKK-17" value="回写" style="shape=ext;rounded=1;html=1;whiteSpace=wrap;strokeWidth=1;fontSize=20;align=center;strokeColor=none;fillColor=#FF8000;fontColor=#FFFFFF;" vertex="1" parent="1">
          <mxGeometry x="2121" y="2198" width="80" height="35" as="geometry" />
        </mxCell>
        <mxCell id="P6FP3i3TC3KOu5trFAKK-18" value="数据梦工场" style="text;html=1;align=center;verticalAlign=middle;resizable=0;points=[];autosize=1;fontSize=20;fontColor=#CC6600;" vertex="1" parent="1">
          <mxGeometry x="2151.5" y="2029" width="110" height="28" as="geometry" />
        </mxCell>
        <mxCell id="P6FP3i3TC3KOu5trFAKK-19" value="" style="edgeStyle=elbowEdgeStyle;rounded=0;orthogonalLoop=1;jettySize=auto;html=1;endArrow=none;endFill=0;fontSize=20;fontColor=#666666;exitX=0.5;exitY=1;exitDx=0;exitDy=0;strokeColor=#FF8000;dashed=1;elbow=vertical;strokeWidth=2;" edge="1" parent="1" source="P6FP3i3TC3KOu5trFAKK-21">
          <mxGeometry relative="1" as="geometry">
            <mxPoint x="2261" y="2266" as="targetPoint" />
          </mxGeometry>
        </mxCell>
        <mxCell id="P6FP3i3TC3KOu5trFAKK-20" value="" style="edgeStyle=orthogonalEdgeStyle;rounded=0;orthogonalLoop=1;jettySize=auto;html=1;endArrow=classic;endFill=1;strokeColor=#FF8000;fontSize=20;fontColor=#FFFFFF;entryX=0;entryY=0.5;entryDx=0;entryDy=0;strokeWidth=4;elbow=vertical;curved=1;" edge="1" parent="1" source="P6FP3i3TC3KOu5trFAKK-21" target="P6FP3i3TC3KOu5trFAKK-24">
          <mxGeometry relative="1" as="geometry" />
        </mxCell>
        <mxCell id="P6FP3i3TC3KOu5trFAKK-21" value="hive表" style="shape=datastore;whiteSpace=wrap;html=1;rounded=1;strokeWidth=1;fillColor=none;fontSize=18;align=center;verticalAlign=middle;fontColor=#666666;strokeColor=#999999;" vertex="1" parent="1">
          <mxGeometry x="2226" y="2091.5" width="70" height="92" as="geometry" />
        </mxCell>
        <mxCell id="P6FP3i3TC3KOu5trFAKK-22" value="" style="rounded=1;arcSize=10;dashed=1;fillColor=none;gradientColor=none;strokeWidth=2;align=center;verticalAlign=middle;strokeColor=#999999;" vertex="1" parent="1">
          <mxGeometry x="2324" y="2022" width="247" height="286" as="geometry" />
        </mxCell>
        <mxCell id="P6FP3i3TC3KOu5trFAKK-23" value="征信上报系统" style="text;html=1;align=center;verticalAlign=middle;resizable=0;points=[];autosize=1;fontSize=20;fontColor=#CC6600;" vertex="1" parent="1">
          <mxGeometry x="2386.5" y="2027" width="130" height="28" as="geometry" />
        </mxCell>
        <mxCell id="P6FP3i3TC3KOu5trFAKK-24" value="源文件创建与下载" style="shape=ext;rounded=1;html=1;whiteSpace=wrap;strokeWidth=1;fontSize=20;align=center;fontColor=#FFFFFF;strokeColor=none;spacingTop=-2;fillColor=#9AC7BF;" vertex="1" parent="1">
          <mxGeometry x="2360.5" y="2065" width="182" height="35" as="geometry" />
        </mxCell>
        <mxCell id="P6FP3i3TC3KOu5trFAKK-25" value="数据计算" style="rounded=1;whiteSpace=wrap;html=1;labelBackgroundColor=none;strokeWidth=1;fontFamily=Verdana;fontSize=20;align=center;fontColor=#FFFFFF;strokeColor=none;spacingTop=-2;fillColor=#9AC7BF;" vertex="1" parent="1">
          <mxGeometry x="2456.63" y="2120.0028093645483" width="100" height="35" as="geometry" />
        </mxCell>
        <mxCell id="P6FP3i3TC3KOu5trFAKK-26" value="数据ETL" style="rounded=1;whiteSpace=wrap;html=1;labelBackgroundColor=none;strokeWidth=1;fontFamily=Verdana;fontSize=20;align=center;fontColor=#FFFFFF;strokeColor=none;spacingTop=-2;fillColor=#9AC7BF;" vertex="1" parent="1">
          <mxGeometry x="2336" y="2118.5028093645483" width="100" height="35" as="geometry" />
        </mxCell>
        <mxCell id="P6FP3i3TC3KOu5trFAKK-27" value="加工清洗" style="rounded=1;whiteSpace=wrap;html=1;labelBackgroundColor=none;strokeWidth=1;fontFamily=Verdana;fontSize=20;align=center;fontColor=#FFFFFF;strokeColor=none;spacingTop=-2;fillColor=#9AC7BF;" vertex="1" parent="1">
          <mxGeometry x="2336" y="2166.000267558529" width="100" height="35" as="geometry" />
        </mxCell>
        <mxCell id="P6FP3i3TC3KOu5trFAKK-28" value="白名单" style="rounded=1;whiteSpace=wrap;html=1;labelBackgroundColor=none;strokeWidth=1;fontFamily=Verdana;fontSize=20;align=center;fontColor=#FFFFFF;strokeColor=none;spacingTop=-2;fillColor=#9AC7BF;" vertex="1" parent="1">
          <mxGeometry x="2350" y="2264.004515050167" width="80" height="35" as="geometry" />
        </mxCell>
        <mxCell id="P6FP3i3TC3KOu5trFAKK-29" value="MD5传输" style="rounded=1;whiteSpace=wrap;html=1;labelBackgroundColor=none;strokeWidth=1;fontFamily=Verdana;fontSize=20;align=center;fontColor=#FFFFFF;strokeColor=none;spacingTop=-2;fillColor=#9AC7BF;" vertex="1" parent="1">
          <mxGeometry x="2457.5" y="2166.000267558529" width="100" height="35" as="geometry" />
        </mxCell>
        <mxCell id="P6FP3i3TC3KOu5trFAKK-30" value="" style="rounded=0;orthogonalLoop=1;jettySize=auto;html=1;endArrow=classic;endFill=1;strokeColor=#FF8000;strokeWidth=5;fontSize=16;fontColor=#FF8000;entryX=0;entryY=0.5;entryDx=0;entryDy=0;exitX=1;exitY=0.5;exitDx=0;exitDy=0;" edge="1" parent="1" source="P6FP3i3TC3KOu5trFAKK-31" target="P6FP3i3TC3KOu5trFAKK-37">
          <mxGeometry relative="1" as="geometry" />
        </mxCell>
        <mxCell id="P6FP3i3TC3KOu5trFAKK-31" value="数据上报" style="rounded=1;whiteSpace=wrap;html=1;labelBackgroundColor=none;strokeWidth=1;fontFamily=Verdana;fontSize=20;align=center;fontColor=#FFFFFF;strokeColor=none;spacingTop=-2;fillColor=#9AC7BF;" vertex="1" parent="1">
          <mxGeometry x="2456.63" y="2264.004515050167" width="100" height="35" as="geometry" />
        </mxCell>
        <mxCell id="P6FP3i3TC3KOu5trFAKK-32" style="edgeStyle=none;rounded=0;orthogonalLoop=1;jettySize=auto;html=1;exitX=0.75;exitY=1;exitDx=0;exitDy=0;dashed=1;endArrow=none;endFill=0;strokeColor=#FF8000;fontSize=20;fontColor=#FFFFFF;" edge="1" parent="1" source="P6FP3i3TC3KOu5trFAKK-26" target="P6FP3i3TC3KOu5trFAKK-26">
          <mxGeometry relative="1" as="geometry" />
        </mxCell>
        <mxCell id="P6FP3i3TC3KOu5trFAKK-33" value="手动触发" style="rounded=1;whiteSpace=wrap;html=1;labelBackgroundColor=none;strokeWidth=1;fontFamily=Verdana;fontSize=20;align=center;fontColor=#FFFFFF;strokeColor=none;spacingTop=-2;fillColor=#9AC7BF;" vertex="1" parent="1">
          <mxGeometry x="2457.5" y="2215.004515050167" width="100" height="35" as="geometry" />
        </mxCell>
        <mxCell id="P6FP3i3TC3KOu5trFAKK-34" value="定时任务" style="rounded=1;whiteSpace=wrap;html=1;labelBackgroundColor=none;strokeWidth=1;fontFamily=Verdana;fontSize=20;align=center;fontColor=#FFFFFF;strokeColor=none;spacingTop=-2;fillColor=#9AC7BF;" vertex="1" parent="1">
          <mxGeometry x="2340" y="2215.004515050167" width="100" height="35" as="geometry" />
        </mxCell>
        <mxCell id="P6FP3i3TC3KOu5trFAKK-35" value="" style="rounded=1;arcSize=10;dashed=1;fillColor=none;gradientColor=none;strokeWidth=2;align=center;verticalAlign=middle;strokeColor=#999999;" vertex="1" parent="1">
          <mxGeometry x="2583" y="2253" width="82" height="55" as="geometry" />
        </mxCell>
        <mxCell id="P6FP3i3TC3KOu5trFAKK-36" value="" style="edgeStyle=orthogonalEdgeStyle;curved=1;rounded=0;orthogonalLoop=1;jettySize=auto;html=1;endArrow=classic;endFill=1;strokeColor=#FF8000;strokeWidth=4;fontSize=16;fontColor=#FF8000;entryX=0.5;entryY=1;entryDx=0;entryDy=0;" edge="1" parent="1" source="P6FP3i3TC3KOu5trFAKK-37" target="P6FP3i3TC3KOu5trFAKK-40">
          <mxGeometry relative="1" as="geometry">
            <mxPoint x="2624" y="2223" as="targetPoint" />
          </mxGeometry>
        </mxCell>
        <mxCell id="P6FP3i3TC3KOu5trFAKK-37" value="SFTP" style="rounded=1;whiteSpace=wrap;html=1;labelBackgroundColor=none;strokeWidth=1;fontFamily=Verdana;fontSize=20;align=center;fontColor=#FFFFFF;fillColor=#FFB570;strokeColor=none;spacingTop=-2;" vertex="1" parent="1">
          <mxGeometry x="2593" y="2262" width="63" height="35" as="geometry" />
        </mxCell>
        <mxCell id="P6FP3i3TC3KOu5trFAKK-38" value="" style="rounded=1;arcSize=10;dashed=1;fillColor=none;gradientColor=none;strokeWidth=2;align=center;verticalAlign=middle;strokeColor=#999999;" vertex="1" parent="1">
          <mxGeometry x="2583.5" y="2022" width="82" height="204" as="geometry" />
        </mxCell>
        <mxCell id="P6FP3i3TC3KOu5trFAKK-39" value="厂商" style="text;html=1;align=center;verticalAlign=middle;resizable=0;points=[];autosize=1;fontSize=20;fontColor=#CC6600;" vertex="1" parent="1">
          <mxGeometry x="2599.5" y="2026" width="50" height="28" as="geometry" />
        </mxCell>
        <mxCell id="P6FP3i3TC3KOu5trFAKK-40" value="入库" style="rounded=1;whiteSpace=wrap;html=1;labelBackgroundColor=none;strokeWidth=1;fontFamily=Verdana;fontSize=20;align=center;spacingTop=-2;fillColor=#f5f5f5;strokeColor=none;fontColor=#999999;" vertex="1" parent="1">
          <mxGeometry x="2593" y="2174.5" width="63" height="35" as="geometry" />
        </mxCell>
        <mxCell id="P6FP3i3TC3KOu5trFAKK-41" value="规则&lt;br&gt;校验" style="rounded=1;whiteSpace=wrap;html=1;labelBackgroundColor=none;strokeWidth=1;fontFamily=Verdana;fontSize=20;align=center;spacingTop=-2;fillColor=#f5f5f5;strokeColor=none;fontColor=#999999;" vertex="1" parent="1">
          <mxGeometry x="2592.5" y="2105" width="63" height="59" as="geometry" />
        </mxCell>
        <mxCell id="P6FP3i3TC3KOu5trFAKK-42" value="" style="rounded=0;orthogonalLoop=1;jettySize=auto;html=1;endArrow=classic;endFill=1;strokeColor=#FF8000;strokeWidth=4;fontSize=16;fontColor=#FF8000;entryX=0.005;entryY=0.522;entryDx=0;entryDy=0;exitX=1;exitY=0.5;exitDx=0;exitDy=0;entryPerimeter=0;" edge="1" parent="1" source="P6FP3i3TC3KOu5trFAKK-43" target="P6FP3i3TC3KOu5trFAKK-45">
          <mxGeometry relative="1" as="geometry" />
        </mxCell>
        <mxCell id="P6FP3i3TC3KOu5trFAKK-43" value="上报" style="rounded=1;whiteSpace=wrap;html=1;labelBackgroundColor=none;strokeWidth=1;fontFamily=Verdana;fontSize=20;align=center;fillColor=#f5f5f5;spacingTop=-2;strokeColor=none;fontColor=#999999;" vertex="1" parent="1">
          <mxGeometry x="2593" y="2058" width="63" height="35" as="geometry" />
        </mxCell>
        <mxCell id="P6FP3i3TC3KOu5trFAKK-44" value="&lt;font style=&quot;font-size: 20px;&quot; color=&quot;#cc6600&quot;&gt;行业平台&lt;/font&gt;" style="text;html=1;align=center;verticalAlign=middle;resizable=0;points=[];autosize=1;fontSize=20;fontFamily=Verdana;fontColor=#000000;" vertex="1" parent="1">
          <mxGeometry x="2695.5" y="2026" width="90" height="28" as="geometry" />
        </mxCell>
        <mxCell id="P6FP3i3TC3KOu5trFAKK-45" value="人行征信" style="rounded=1;whiteSpace=wrap;html=1;labelBackgroundColor=none;strokeWidth=1;fontFamily=Verdana;fontSize=20;align=center;strokeColor=none;fontColor=#FFFFFF;fillColor=#E5CCFF;" vertex="1" parent="1">
          <mxGeometry x="2689.5" y="2062" width="100" height="45" as="geometry" />
        </mxCell>
        <mxCell id="P6FP3i3TC3KOu5trFAKK-46" value="百行征信" style="rounded=1;whiteSpace=wrap;html=1;labelBackgroundColor=none;strokeWidth=1;fontFamily=Verdana;fontSize=20;align=center;strokeColor=none;fontColor=#FFFFFF;fillColor=#E5CCFF;" vertex="1" parent="1">
          <mxGeometry x="2688.5" y="2185" width="100" height="45" as="geometry" />
        </mxCell>
        <mxCell id="P6FP3i3TC3KOu5trFAKK-47" value="互金协会" style="rounded=1;whiteSpace=wrap;html=1;labelBackgroundColor=none;strokeWidth=1;fontFamily=Verdana;fontSize=20;align=center;strokeColor=none;fontColor=#FFFFFF;fillColor=#E5CCFF;" vertex="1" parent="1">
          <mxGeometry x="2688.5" y="2123" width="100" height="45" as="geometry" />
        </mxCell>
        <mxCell id="P6FP3i3TC3KOu5trFAKK-48" value="……" style="rounded=1;whiteSpace=wrap;html=1;labelBackgroundColor=none;strokeWidth=1;fontFamily=Verdana;fontSize=20;align=center;strokeColor=none;fontColor=#FFFFFF;fillColor=#E5CCFF;" vertex="1" parent="1">
          <mxGeometry x="2690.5" y="2249" width="100" height="45" as="geometry" />
        </mxCell>
      </root>
    </mxGraphModel>
  </diagram>
</mxfile>
